<?xml version="1.0" encoding="utf-8"?>
<!-- Generator: Adobe Illustrator 21.0.0, SVG Export Plug-In . SVG Version: 6.00 Build 0)  -->
<svg version="1.1" id="Capa_1" xmlns="http://www.w3.org/2000/svg" xmlns:xlink="http://www.w3.org/1999/xlink" x="0px" y="0px"
	 viewBox="0 0 456.3 456.3" style="enable-background:new 0 0 456.3 456.3;" xml:space="preserve">
<style type="text/css">
	.st0{stroke:#fff; fill: #fff;stroke-width:10;stroke-miterlimit:10;}
</style>
<g>
	<path class="st0" d="M227.8,450.2c-37.2,0-74.6-9.3-108.5-28.4c-6.3-3.5-8.5-11.5-5-17.8c3.5-6.3,11.5-8.5,17.8-5
		c76.2,42.9,172.7,29.6,234.6-32.3c76.4-76.4,76.4-200.7,0-277.1c-76.4-76.4-200.7-76.4-277.2,0c-76.4,76.4-76.4,200.7,0,277.1
		c5.1,5.1,5.1,13.4,0,18.5c-5.1,5.1-13.4,5.1-18.5,0c-86.6-86.6-86.6-227.5,0-314.1c86.6-86.6,227.5-86.6,314.1,0
		c86.6,86.6,86.6,227.5,0,314.1C342.6,427.9,285.4,450.2,227.8,450.2z"/>
	<path class="st0" d="M297.5,314.9c-3.3,0-6.7-1.3-9.2-3.8L149.6,172.3c-5.1-5.1-5.1-13.4,0-18.5s13.4-5.1,18.5,0l138.8,138.8
		c5.1,5.1,5.1,13.4,0,18.5C304.2,313.6,300.9,314.9,297.5,314.9z"/>
	<path class="st0" d="M158.8,314.9c-3.3,0-6.7-1.3-9.2-3.8c-5.1-5.1-5.1-13.4,0-18.5l138.8-138.8c5.1-5.1,13.4-5.1,18.5,0
		c5.1,5.1,5.1,13.4,0,18.5L168,311.1C165.5,313.6,162.1,314.9,158.8,314.9z"/>
</g>
</svg>
