<?xml version="1.0" encoding="utf-8"?>
<!-- Generator: Adobe Illustrator 21.0.0, SVG Export Plug-In . SVG Version: 6.00 Build 0)  -->
<svg version="1.1" id="Layer_1" xmlns="http://www.w3.org/2000/svg" xmlns:xlink="http://www.w3.org/1999/xlink" x="0px" y="0px"
	 viewBox="0 0 512 512" style="enable-background:new 0 0 512 512;" xml:space="preserve">
<style type="text/css">
	.st0{stroke:#000000;stroke-width:6;stroke-miterlimit:10;}
</style>
<path class="st0" d="M438.5,92.6c-38.6-43.9-91.7-72.5-149.4-80.3c-3.9-0.5-7.5,2.2-8,6.1c-0.5,3.9,2.2,7.5,6.1,8
	c54.3,7.4,104.2,34.3,140.6,75.6c36.7,41.7,56.9,95.4,56.9,151.1c0,61.1-23.8,118.6-67,161.8s-100.7,67-161.8,67
	c-61.1,0-118.6-23.8-161.8-67s-67-100.7-67-161.8S51,134.5,94.2,91.3s100.7-67,161.8-67c3.9,0,7.1-3.2,7.1-7.1S259.9,10,256,10
	c-64.9,0-125.9,25.3-171.8,71.2S13,188.2,13,253.1s25.3,126,71.2,171.9s106.9,71.2,171.8,71.2c64.9,0,125.9-25.3,171.8-71.2
	S499,318,499,253.1C499,194,477.5,137,438.5,92.6z"/>
<path class="st0" d="M326.4,346.4c20.1-6.2,38.2-18.9,50.9-35.8c13.1-17.5,20.1-38.3,20.1-60.2c0-55.4-45-100.4-100.4-100.4H215
	c-55.4,0-100.4,45-100.4,100.4c0,40.3,24,76.6,61.1,92.4c2.5,1.1,4.1,3.5,4.1,6.2v24c0,6.6,4,12.3,10.2,14.5
	c1.7,0.6,3.5,0.9,5.3,0.9c4.5,0,8.8-2,11.8-5.7l24.1-29.5c1.3-1.6,3.2-2.5,5.2-2.5h55.2c3.9,0,7.1-3.2,7.1-7.1
	c0-3.9-3.2-7.1-7.1-7.1h-55.2c-6.3,0-12.2,2.8-16.2,7.7l-24.1,29.5c-0.1,0.2-0.5,0.6-1.2,0.3c-0.7-0.3-0.7-0.8-0.7-1.1v-24
	c0-8.4-5-16-12.8-19.3c-31.8-13.6-52.4-44.7-52.4-79.3c0-47.5,38.6-86.2,86.2-86.2H297c47.5,0,86.2,38.7,86.2,86.2
	c0,18.8-6,36.7-17.2,51.7c-10.9,14.5-26.4,25.4-43.6,30.7c-3.8,1.2-5.9,5.1-4.7,8.9C318.7,345.5,322.7,347.6,326.4,346.4z"/>
<path class="st0" d="M180.1,249.2c0,11.8,9.6,21.4,21.4,21.4s21.4-9.6,21.4-21.4c0-11.8-9.6-21.4-21.4-21.4S180.1,237.3,180.1,249.2
	z M208.7,249.2c0,4-3.2,7.2-7.2,7.2c-4,0-7.2-3.2-7.2-7.2c0-4,3.2-7.2,7.2-7.2C205.5,242,208.7,245.2,208.7,249.2z"/>
<path class="st0" d="M234.6,249.2c0,11.8,9.6,21.4,21.4,21.4c11.8,0,21.4-9.6,21.4-21.4c0-11.8-9.6-21.4-21.4-21.4
	C244.2,227.7,234.6,237.3,234.6,249.2z M263.2,249.2c0,4-3.2,7.2-7.2,7.2c-4,0-7.2-3.2-7.2-7.2c0-4,3.2-7.2,7.2-7.2
	C260,242,263.2,245.2,263.2,249.2z"/>
<path class="st0" d="M331.9,249.2c0-11.8-9.6-21.4-21.4-21.4c-11.8,0-21.4,9.6-21.4,21.4c0,11.8,9.6,21.4,21.4,21.4
	C322.3,270.6,331.9,261,331.9,249.2z M310.5,256.4c-4,0-7.2-3.2-7.2-7.2c0-4,3.2-7.2,7.2-7.2c4,0,7.2,3.2,7.2,7.2
	C317.7,253.1,314.5,256.4,310.5,256.4z"/>
</svg>
