<?xml version="1.0" encoding="utf-8"?>
<!-- Generator: Adobe Illustrator 21.0.0, SVG Export Plug-In . SVG Version: 6.00 Build 0)  -->
<svg version="1.1" id="Capa_1" xmlns="http://www.w3.org/2000/svg" xmlns:xlink="http://www.w3.org/1999/xlink" x="0px" y="0px"
	 viewBox="0 0 266.8 266.8" style="enable-background:new 0 0 266.8 266.8;" xml:space="preserve">
<style type="text/css">
	.st0{stroke:#000000;stroke-width:6;stroke-miterlimit:10;}
</style>
<g>
	<path class="st0" d="M131,36.5c10.8,0,19.6,8.8,19.6,19.6v141.7c0,2.6,2.1,4.8,4.8,4.8s4.8-2.1,4.8-4.8V56
		c0-16-13.1-29.1-29.1-29.1S101.9,40,101.9,56v165.1c0,7.3,2,14.5,5.8,20.7c0.9,1.5,2.5,2.3,4.1,2.3c0.9,0,1.7-0.2,2.5-0.7
		c2.2-1.4,3-4.3,1.6-6.6c-2.9-4.7-4.4-10.1-4.4-15.7V56C111.4,45.2,120.2,36.5,131,36.5z"/>
	<path class="st0" d="M174.9,32.2c-1.3-2.3-4.2-3.2-6.5-1.9c-2.3,1.3-3.2,4.2-1.9,6.5c3.2,5.9,5,12.7,5,19.5v164.9
		c0,16.6-13.5,30.1-30.1,30.1c-5.2,0-10.4-1.4-14.9-3.9c-2.3-1.3-5.2-0.5-6.5,1.8c-1.3,2.3-0.5,5.2,1.8,6.5c6,3.4,12.7,5.2,19.6,5.2
		c21.8,0,39.6-17.8,39.6-39.6V56.2C181.1,47.8,179,39.5,174.9,32.2z"/>
	<path class="st0" d="M131,15.7c8.1,0,15.9,2.4,22.6,6.9c2.2,1.5,5.1,0.9,6.6-1.3c1.5-2.2,0.9-5.2-1.3-6.6
		C150.7,9.1,141,6.1,131,6.1c-27.6,0-50.1,22.5-50.1,50.1v141.5c0,2.6,2.1,4.8,4.8,4.8c2.6,0,4.8-2.1,4.8-4.8V56.2
		C90.4,33.9,108.6,15.7,131,15.7z"/>
</g>
</svg>
