<?xml version="1.0" encoding="utf-8"?>
<!-- Generator: Adobe Illustrator 21.0.0, SVG Export Plug-In . SVG Version: 6.00 Build 0)  -->
<svg version="1.1" id="Capa_1" xmlns="http://www.w3.org/2000/svg" xmlns:xlink="http://www.w3.org/1999/xlink" x="0px" y="0px"
	 viewBox="0 0 117 297" style="enable-background:new 0 0 117 297;" xml:space="preserve">
<path d="M95.6,16.5c-14.4,0-27.3,6.7-35.7,17.2c-8.4-10.4-21.3-17.2-35.7-17.2c-5.6,0-10.1,4.5-10.1,10.1c0,5.6,4.5,10.1,10.1,10.1
	c14.1,0,25.6,11.5,25.6,25.6v172.3c0,14.1-11.5,25.6-25.6,25.6c-5.6,0-10.1,4.5-10.1,10.1c0,5.6,4.5,10.1,10.1,10.1
	c14.4,0,27.3-6.7,35.7-17.2c8.4,10.4,21.3,17.2,35.7,17.2c5.6,0,10.1-4.5,10.1-10.1c0-5.6-4.5-10.1-10.1-10.1
	c-14.1,0-25.6-11.5-25.6-25.6V62.4c0-14.1,11.5-25.6,25.6-25.6c5.6,0,10.1-4.5,10.1-10.1C105.7,21.1,101.1,16.5,95.6,16.5z"/>
</svg>
