<svg xmlns="http://www.w3.org/2000/svg" viewBox="0 0 73.411 73.411" fill="#365db9" fill-opacity=".7"><path d="M70.247 18.012c-.301-4.533-2.33-8.892-5.714-12.274-7.094-7.094-18.036-7.692-24.393-1.337L7.107 37.434l4.242 4.242L44.382 8.644c4.019-4.018 11.154-3.417 15.908 1.337 2.355 2.354 3.765 5.347 3.97 8.428.194 2.931-.741 5.588-2.633 7.48L21.7 65.814c-2.506 2.486-6.989 2.055-10.006-.961-1.516-1.516-2.422-3.434-2.552-5.402-.121-1.818.45-3.457 1.608-4.613l-.002-.002 39.058-39.058c.537-.536 1.268-.569 1.652-.547.806.054 1.634.451 2.273 1.091.641.64 1.038 1.469 1.092 2.274.025.386-.012 1.113-.549 1.65l-32.11 32.113 4.242 4.242L58.515 24.49c1.617-1.615 2.453-3.908 2.294-6.292-.15-2.268-1.158-4.441-2.835-6.118-1.676-1.677-3.849-2.685-6.117-2.836-2.377-.16-4.678.675-6.294 2.292L6.121 50.978l.022.023c-2.145 2.357-3.212 5.469-2.988 8.846.227 3.42 1.752 6.705 4.297 9.25 2.862 2.859 6.561 4.314 10.124 4.314 2.982 0 5.861-1.031 8.084-3.098l.013.012.247-.246c.013-.014.026-.023.039-.035l-.002-.002L65.87 30.131c3.134-3.132 4.688-7.437 4.377-12.119z"/></svg>